<?xml version="1.0" encoding="UTF-8" standalone="no"?>
<!DOCTYPE svg PUBLIC "-//W3C//DTD SVG 1.1//EN"
 "http://www.w3.org/Graphics/SVG/1.1/DTD/svg11.dtd">
<!-- Generated by graphviz version 2.43.0 (0)
 -->
<!-- Title: dependency&#45;cruiser output Pages: 1 -->
<svg width="193pt" height="240pt"
 viewBox="0.00 0.00 193.00 240.00" xmlns="http://www.w3.org/2000/svg" xmlns:xlink="http://www.w3.org/1999/xlink">
<g id="graph0" class="graph" transform="scale(1 1) rotate(0) translate(4 236)">
<title>dependency&#45;cruiser output</title>
<polygon fill="white" stroke="transparent" points="-4,4 -4,-236 189,-236 189,4 -4,4"/>
<g id="clust1" class="cluster">
<title>cluster_fs</title>
<path fill="#ffffff" stroke="black" stroke-width="2" d="M116,-26C116,-26 165,-26 165,-26 171,-26 177,-32 177,-38 177,-38 177,-66 177,-66 177,-72 171,-78 165,-78 165,-78 116,-78 116,-78 110,-78 104,-72 104,-66 104,-66 104,-38 104,-38 104,-32 110,-26 116,-26"/>
<text text-anchor="middle" x="140.5" y="-66.8" font-family="Helvetica,sans-Serif" font-weight="bold" font-size="9.00">fs</text>
</g>
<g id="clust2" class="cluster">
<title>cluster_src</title>
<path fill="#ffffff" stroke="black" stroke-width="2" d="M20,-112C20,-112 163.5,-112 163.5,-112 169.5,-112 175.5,-118 175.5,-124 175.5,-124 175.5,-212 175.5,-212 175.5,-218 169.5,-224 163.5,-224 163.5,-224 20,-224 20,-224 14,-224 8,-218 8,-212 8,-212 8,-124 8,-124 8,-118 14,-112 20,-112"/>
<text text-anchor="middle" x="91.75" y="-212.8" font-family="Helvetica,sans-Serif" font-weight="bold" font-size="9.00">src</text>
</g>
<!-- astro:content -->
<g id="node1" class="node">
<title>astro:content</title>
<g id="a_node1"><a xlink:title="astro:content">
<path fill="#ffffcc" stroke="black" d="M173,-104C173,-104 108,-104 108,-104 105,-104 102,-101 102,-98 102,-98 102,-92 102,-92 102,-89 105,-86 108,-86 108,-86 173,-86 173,-86 176,-86 179,-89 179,-92 179,-92 179,-98 179,-98 179,-101 176,-104 173,-104"/>
<text text-anchor="middle" x="140.5" y="-92.8" font-family="Helvetica,sans-Serif" font-size="9.00">astro:content</text>
</a>
</g>
</g>
<!-- fs/promises -->
<g id="node2" class="node">
<title>fs/promises</title>
<g id="a_node2"><a xlink:href="https://nodejs.org/api/fs.html" xlink:title="promises">
<path fill="#ffffcc" stroke="grey" d="M163,-52C163,-52 118,-52 118,-52 115,-52 112,-49 112,-46 112,-46 112,-40 112,-40 112,-37 115,-34 118,-34 118,-34 163,-34 163,-34 166,-34 169,-37 169,-40 169,-40 169,-46 169,-46 169,-49 166,-52 163,-52"/>
<text text-anchor="start" x="120" y="-40.8" font-family="Helvetica,sans-Serif" font-size="9.00" fill="grey">promises</text>
</a>
</g>
</g>
<!-- path -->
<g id="node3" class="node">
<title>path</title>
<g id="a_node3"><a xlink:href="https://nodejs.org/api/path.html" xlink:title="path">
<path fill="#ffffcc" stroke="grey" d="M161.5,-18C161.5,-18 119.5,-18 119.5,-18 116.5,-18 113.5,-15 113.5,-12 113.5,-12 113.5,-6 113.5,-6 113.5,-3 116.5,0 119.5,0 119.5,0 161.5,0 161.5,0 164.5,0 167.5,-3 167.5,-6 167.5,-6 167.5,-12 167.5,-12 167.5,-15 164.5,-18 161.5,-18"/>
<text text-anchor="middle" x="140.5" y="-6.8" font-family="Helvetica,sans-Serif" font-size="9.00" fill="grey">path</text>
</a>
</g>
</g>
<!-- src/components -->
<g id="node4" class="node">
<title>src/components</title>
<g id="a_node4"><a xlink:href="src/components" xlink:title="components">
<polygon fill="#ffffcc" stroke="black" points="89,-198 18,-198 16,-196 16,-180 87,-180 89,-182 89,-198"/>
<polyline fill="none" stroke="black" points="87,-196 16,-196 "/>
<polyline fill="none" stroke="black" points="87,-196 87,-180 "/>
<polyline fill="none" stroke="black" points="87,-196 89,-198 "/>
<text text-anchor="start" x="24" y="-186.8" font-family="Helvetica,sans-Serif" font-size="9.00">components</text>
</a>
</g>
</g>
<!-- src/utils -->
<g id="node5" class="node">
<title>src/utils</title>
<g id="a_node5"><a xlink:href="src/utils" xlink:title="utils">
<polygon fill="#ccffcc" stroke="black" points="167.5,-138 115.5,-138 113.5,-136 113.5,-120 165.5,-120 167.5,-122 167.5,-138"/>
<polyline fill="none" stroke="black" points="165.5,-136 113.5,-136 "/>
<polyline fill="none" stroke="black" points="165.5,-136 165.5,-120 "/>
<polyline fill="none" stroke="black" points="165.5,-136 167.5,-138 "/>
<text text-anchor="start" x="131" y="-126.8" font-family="Helvetica,sans-Serif" font-size="9.00">utils</text>
</a>
</g>
</g>
<!-- src/components&#45;&gt;src/utils -->
<g id="edge1" class="edge">
<title>src/components&#45;&gt;src/utils</title>
<path fill="none" stroke="#000000" stroke-width="2" stroke-opacity="0.200000" d="M81.21,-179.86C84.04,-178.2 86.72,-176.26 89,-174 99.32,-163.77 91.58,-154.13 102,-144 103.81,-142.24 105.85,-140.68 108.03,-139.3"/>
<polygon fill="#000000" fill-opacity="0.200000" stroke="#000000" stroke-width="2" stroke-opacity="0.200000" points="109.06,-141.12 113.29,-136.38 107.02,-137.45 109.06,-141.12"/>
</g>
<!-- src/data -->
<g id="node6" class="node">
<title>src/data</title>
<g id="a_node6"><a xlink:href="src/data" xlink:title="data">
<polygon fill="#ffffcc" stroke="black" points="167.5,-168 115.5,-168 113.5,-166 113.5,-150 165.5,-150 167.5,-152 167.5,-168"/>
<polyline fill="none" stroke="black" points="165.5,-166 113.5,-166 "/>
<polyline fill="none" stroke="black" points="165.5,-166 165.5,-150 "/>
<polyline fill="none" stroke="black" points="165.5,-166 167.5,-168 "/>
<text text-anchor="start" x="130" y="-156.8" font-family="Helvetica,sans-Serif" font-size="9.00">data</text>
</a>
</g>
</g>
<!-- src/components&#45;&gt;src/data -->
<g id="edge2" class="edge">
<title>src/components&#45;&gt;src/data</title>
<path fill="none" stroke="#000000" stroke-width="2" stroke-opacity="0.200000" d="M79.3,-180C88.23,-176.88 98.35,-173.35 107.71,-170.09"/>
<polygon fill="#000000" fill-opacity="0.200000" stroke="#000000" stroke-width="2" stroke-opacity="0.200000" points="108.44,-172.06 113.42,-168.1 107.06,-168.09 108.44,-172.06"/>
</g>
<!-- src/services -->
<g id="node7" class="node">
<title>src/services</title>
<g id="a_node7"><a xlink:href="src/services" xlink:title="services">
<polygon fill="#ffffcc" stroke="black" points="167.5,-198 115.5,-198 113.5,-196 113.5,-180 165.5,-180 167.5,-182 167.5,-198"/>
<polyline fill="none" stroke="black" points="165.5,-196 113.5,-196 "/>
<polyline fill="none" stroke="black" points="165.5,-196 165.5,-180 "/>
<polyline fill="none" stroke="black" points="165.5,-196 167.5,-198 "/>
<text text-anchor="start" x="122" y="-186.8" font-family="Helvetica,sans-Serif" font-size="9.00">services</text>
</a>
</g>
</g>
<!-- src/components&#45;&gt;src/services -->
<g id="edge3" class="edge">
<title>src/components&#45;&gt;src/services</title>
<path fill="none" stroke="#000000" stroke-width="2" stroke-opacity="0.200000" d="M89.47,-189C95.35,-189 101.42,-189 107.2,-189"/>
<polygon fill="#000000" fill-opacity="0.200000" stroke="#000000" stroke-width="2" stroke-opacity="0.200000" points="107.35,-191.1 113.35,-189 107.35,-186.9 107.35,-191.1"/>
</g>
<!-- src/content -->
<g id="node8" class="node">
<title>src/content</title>
<g id="a_node8"><a xlink:href="src/content" xlink:title="content">
<polygon fill="#ffffcc" stroke="black" points="79.5,-168 27.5,-168 25.5,-166 25.5,-150 77.5,-150 79.5,-152 79.5,-168"/>
<polyline fill="none" stroke="black" points="77.5,-166 25.5,-166 "/>
<polyline fill="none" stroke="black" points="77.5,-166 77.5,-150 "/>
<polyline fill="none" stroke="black" points="77.5,-166 79.5,-168 "/>
<text text-anchor="start" x="34.5" y="-156.8" font-family="Helvetica,sans-Serif" font-size="9.00">content</text>
</a>
</g>
</g>
<!-- src/content&#45;&gt;astro:content -->
<g id="edge4" class="edge">
<title>src/content&#45;&gt;astro:content</title>
<path fill="none" stroke="#000000" stroke-width="2" stroke-opacity="0.200000" d="M79.54,-150.99C83.03,-149.11 86.32,-146.8 89,-144 100.47,-132.01 90.28,-120.74 102,-109 102.47,-108.53 102.95,-108.08 103.45,-107.64"/>
<polygon fill="#000000" fill-opacity="0.200000" stroke="#000000" stroke-width="2" stroke-opacity="0.200000" points="104.69,-109.34 108.29,-104.1 102.21,-105.95 104.69,-109.34"/>
</g>
<!-- src/tests -->
<g id="node9" class="node">
<title>src/tests</title>
<g id="a_node9"><a xlink:href="src/tests" xlink:title="tests">
<polygon fill="#ccffcc" stroke="black" points="79.5,-138 27.5,-138 25.5,-136 25.5,-120 77.5,-120 79.5,-122 79.5,-138"/>
<polyline fill="none" stroke="black" points="77.5,-136 25.5,-136 "/>
<polyline fill="none" stroke="black" points="77.5,-136 77.5,-120 "/>
<polyline fill="none" stroke="black" points="77.5,-136 79.5,-138 "/>
<text text-anchor="start" x="41.5" y="-126.8" font-family="Helvetica,sans-Serif" font-size="9.00">tests</text>
</a>
</g>
</g>
<!-- src/tests&#45;&gt;fs/promises -->
<g id="edge5" class="edge">
<title>src/tests&#45;&gt;fs/promises</title>
<path fill="none" stroke="#000000" stroke-dasharray="5,2" stroke-opacity="0.200000" d="M62.41,-119.94C72.11,-110.08 88.11,-93.87 102,-80 109.78,-72.23 118.53,-63.6 125.61,-56.62"/>
<polygon fill="#000000" fill-opacity="0.200000" stroke="#000000" stroke-opacity="0.200000" points="127.42,-57.8 130.22,-52.09 124.47,-54.8 127.42,-57.8"/>
</g>
<!-- src/tests&#45;&gt;path -->
<g id="edge6" class="edge">
<title>src/tests&#45;&gt;path</title>
<path fill="none" stroke="#000000" stroke-dasharray="5,2" stroke-opacity="0.200000" d="M55.19,-119.96C59.44,-99.76 72.37,-50.57 102,-23 103.73,-21.39 105.66,-19.96 107.71,-18.69"/>
<polygon fill="#000000" fill-opacity="0.200000" stroke="#000000" stroke-opacity="0.200000" points="109.04,-20.37 113.35,-15.7 107.07,-16.66 109.04,-20.37"/>
</g>
</g>
</svg>
